<svg height='300px' width='300px'  fill="#000000" xmlns="http://www.w3.org/2000/svg" xmlns:xlink="http://www.w3.org/1999/xlink" version="1.1" x="0px" y="0px" viewBox="0 0 252.1 238.6" enable-background="new 0 0 252.1 238.6" xml:space="preserve"><g><path d="M46.7,238.6v-64.4H32.6c-18,0-32.6-14.6-32.6-32.6v-109C0,14.6,14.6,0,32.6,0h186.8c18.3,0,32.6,14.1,32.6,32.2v109.5   c0,18-14.6,32.6-32.6,32.6H111.6L46.7,238.6z M32.6,3C16.3,3,3,16.3,3,32.6v109c0,16.3,13.3,29.6,29.6,29.6h17.1v60.2l60.6-60.2   h109.1c16.3,0,29.6-13.3,29.6-29.6V32.2c0-16.4-13-29.2-29.6-29.2H32.6z"></path></g></svg>